<?xml version="1.0" encoding="utf-8"?>

<!DOCTYPE svg PUBLIC "-//W3C//DTD SVG 1.1//EN" "http://www.w3.org/Graphics/SVG/1.1/DTD/svg11.dtd">
<svg version="1.1" id="Layer_1" xmlns="http://www.w3.org/2000/svg" xmlns:xlink="http://www.w3.org/1999/xlink" x="0px" y="0px"
	 viewBox="0 0 1272.117 1691.734" enable-background="new 0 0 1272.117 1691.734" xml:space="preserve">
<g>
	<path d="M86.889,529.096c-17.038,0.411-34.091,0.247-51.125-0.49c0-17.08,0-34.16,0-51.24c17.032,0.856,34.088,1.047,51.125,0.569
		C86.889,494.989,86.889,512.042,86.889,529.096z"/>
	<path d="M147.387,525.232c-17.024,1.758-34.075,2.957-51.125,3.58c0-17.069,0-34.138,0-51.207
		c17.053-0.724,34.108-2.117,51.125-4.158C147.387,490.709,147.387,507.97,147.387,525.232z"/>
	<path d="M207.885,516.65c-17.011,3.058-34.061,5.587-51.125,7.557c0-17.317,0-34.634,0-51.951
		c17.071-2.289,34.124-5.228,51.125-8.777C207.885,481.203,207.885,498.927,207.885,516.65z"/>
	<path d="M268.383,503.573c-17.003,4.277-34.05,8.072-51.125,11.338c0-17.817,0-35.635,0-53.452
		c17.086-3.796,34.134-8.205,51.125-13.169C268.383,466.718,268.383,485.146,268.383,503.573z"/>
	<path d="M328.882,486.34c-16.999,5.386-34.043,10.346-51.125,14.825c0-18.557,0-37.115,0-55.672
		c17.095-5.206,34.139-10.968,51.125-17.22C328.882,447.629,328.882,466.985,328.882,486.34z"/>
	<path d="M389.38,465.397c-17,6.357-34.041,12.353-51.125,17.929c0-19.518,0-39.035,0-58.553
		c17.097-6.48,34.137-13.446,51.125-20.824C389.38,424.431,389.38,444.914,389.38,465.397z"/>
	<path d="M449.878,441.287c-17.005,7.165-34.043,14.042-51.125,20.567c0-20.674,0-41.347,0-62.021
		c17.094-7.584,34.131-15.572,51.125-23.889C449.878,397.725,449.878,419.506,449.878,441.287z"/>
	<path d="M510.376,414.634c-17.013,7.789-34.049,15.368-51.125,22.673c0-21.995,0-43.99,0-65.985
		c17.086-8.489,34.12-17.292,51.125-26.335C510.376,368.203,510.376,391.419,510.376,414.634z"/>
	<path d="M570.874,386.13c-17.023,8.213-34.058,16.298-51.125,24.191c0-23.448,0-46.896,0-70.344
		c17.074-9.171,34.107-18.562,51.125-28.098C570.874,336.629,570.874,361.38,570.874,386.13z"/>
	<path d="M631.372,356.512c-17.035,8.425-34.069,16.808-51.125,25.083c0-24.994,0-49.989,0-74.983
		c17.06-9.614,34.092-19.349,51.125-29.134C631.372,303.823,631.372,330.168,631.372,356.512z"/>
	<path d="M691.87,326.549c-17.047,8.419-34.081,16.882-51.125,25.324c0-26.595,0-53.189,0-79.784
		c17.045-9.806,34.076-19.635,51.125-29.414C691.87,270.633,691.87,298.591,691.87,326.549z"/>
	<path d="M752.368,297.016c-17.059,8.195-34.093,16.52-51.125,24.91c0-28.207,0-56.414,0-84.62
		c17.029-9.743,34.061-19.412,51.125-28.933C752.368,237.92,752.368,267.468,752.368,297.016z"/>
	<path d="M812.867,268.679c-17.07,7.757-34.105,15.729-51.125,23.85c0-29.789,0-59.579,0-89.368
		c17.015-9.429,34.048-18.688,51.125-27.701C812.867,206.532,812.867,237.606,812.867,268.679z"/>
	<path d="M873.365,242.272c-17.078,7.116-34.115,14.529-51.125,22.171c0-31.301,0-62.603,0-93.904
		c17.002-8.873,34.037-17.482,51.125-25.752C873.365,177.282,873.365,209.777,873.365,242.272z"/>
	<path d="M933.863,218.48c-17.083,6.29-34.122,12.95-51.125,19.919c0-32.704,0-65.407,0-98.111
		c16.992-8.089,34.03-15.825,51.125-23.136C933.863,150.928,933.863,184.704,933.863,218.48z"/>
	<path d="M994.361,197.918c-17.084,5.298-34.126,11.035-51.125,17.15c0-33.96,0-67.919,0-101.879
		c16.987-7.098,34.028-13.761,51.125-19.92C994.361,128.152,994.361,163.035,994.361,197.918z"/>
	<path d="M1054.859,181.12c-17.08,4.168-34.125,8.832-51.125,13.937c0-35.037,0-70.074,0-105.111
		c16.987-5.926,34.032-11.343,51.125-16.188C1054.859,109.545,1054.859,145.333,1054.859,181.12z"/>
	<path d="M1115.357,168.52c-17.072,2.93-34.12,6.398-51.125,10.363c0-35.908,0-71.815,0-107.723
		c16.993-4.601,34.043-8.631,51.125-12.037C1115.357,95.589,1115.357,132.055,1115.357,168.52z"/>
	<path d="M1175.855,160.447c-17.06,1.617-34.111,3.8-51.125,6.52c0-36.549,0-73.098,0-109.647
		c17.005-3.158,34.058-5.695,51.125-7.573C1175.855,86.646,1175.855,123.546,1175.855,160.447z"/>
	<path d="M1236.354,157.107c-17.046,0.263-34.098,1.103-51.125,2.508c0-36.945,0-73.89,0-110.835
		c17.022-1.632,34.078-2.608,51.125-2.914C1236.354,82.947,1236.354,120.027,1236.354,157.107z"/>
	<path d="M86.889,591.342c-17.039,0.33-34.088,0.199-51.125-0.394c0-17.08,0-34.16,0-51.24c17.035,0.711,34.087,0.87,51.125,0.473
		C86.889,557.235,86.889,574.288,86.889,591.342z"/>
	<path d="M147.387,588.237c-17.03,1.413-34.078,2.376-51.125,2.876c0-17.069,0-34.138,0-51.207
		c17.049-0.601,34.1-1.758,51.125-3.455C147.387,553.714,147.387,570.975,147.387,588.237z"/>
	<path d="M207.885,581.342c-17.022,2.458-34.069,4.49-51.125,6.072c0-17.317,0-34.634,0-51.951
		c17.062-1.9,34.112-4.341,51.125-7.292C207.885,545.894,207.885,563.618,207.885,581.342z"/>
	<path d="M268.383,570.834c-17.016,3.44-34.062,6.487-51.125,9.11c0-17.817,0-35.635,0-53.452
		c17.073-3.151,34.12-6.813,51.125-10.941C268.383,533.979,268.383,552.407,268.383,570.834z"/>
	<path d="M328.882,556.988c-17.013,4.332-34.057,8.316-51.125,11.912c0-18.557,0-37.115,0-55.672
		c17.079-4.322,34.123-9.108,51.125-14.307C328.882,518.277,328.882,537.632,328.882,556.988z"/>
	<path d="M389.38,540.16c-17.014,5.112-34.055,9.93-51.125,14.406c0-19.518,0-39.035,0-58.553
		c17.081-5.379,34.122-11.166,51.125-17.301C389.38,499.194,389.38,519.677,389.38,540.16z"/>
	<path d="M449.878,520.787c-17.017,5.761-34.056,11.287-51.125,16.526c0-20.674,0-41.347,0-62.021
		c17.079-6.296,34.118-12.932,51.125-19.848C449.878,477.226,449.878,499.006,449.878,520.787z"/>
	<path d="M510.376,499.372c-17.022,6.262-34.06,12.352-51.125,18.218c0-21.995,0-43.99,0-65.985
		c17.074-7.048,34.11-14.362,51.125-21.88C510.376,452.94,510.376,476.156,510.376,499.372z"/>
	<path d="M570.874,476.469c-17.029,6.601-34.066,13.099-51.125,19.438c0-23.448,0-46.896,0-70.344
		c17.066-7.616,34.101-15.419,51.125-23.345C570.874,426.968,570.874,451.718,570.874,476.469z"/>
	<path d="M631.372,452.671c-17.037,6.77-34.073,13.507-51.125,20.154c0-24.994,0-49.989,0-74.983
		c17.055-7.985,34.09-16.075,51.125-24.205C631.372,399.981,631.372,426.326,631.372,452.671z"/>
	<path d="M691.87,428.595c-17.046,6.764-34.082,13.565-51.125,20.348c0-26.595,0-53.189,0-79.784
		c17.044-8.146,34.078-16.314,51.125-24.438C691.87,372.68,691.87,400.637,691.87,428.595z"/>
	<path d="M752.368,404.866c-17.054,6.582-34.09,13.272-51.125,20.015c0-28.207,0-56.414,0-84.62
		c17.033-8.096,34.067-16.131,51.125-24.038C752.368,345.77,752.368,375.318,752.368,404.866z"/>
	<path d="M812.867,382.097c-17.061,6.229-34.098,12.635-51.125,19.163c0-29.789,0-59.579,0-89.368
		c17.022-7.837,34.057-15.53,51.125-23.015C812.867,319.95,812.867,351.024,812.867,382.097z"/>
	<path d="M873.365,360.879c-17.066,5.714-34.105,11.67-51.125,17.815c0-31.301,0-62.603,0-93.904
		c17.012-7.376,34.049-14.529,51.125-21.396C873.365,295.889,873.365,328.384,873.365,360.879z"/>
	<path d="M933.863,341.762c-17.069,5.05-34.109,10.402-51.125,16.005c0-32.704,0-65.407,0-98.111
		c17.006-6.726,34.045-13.153,51.125-19.222C933.863,274.21,933.863,307.986,933.863,341.762z"/>
	<path d="M994.361,325.24c-17.07,4.254-34.112,8.862-51.125,13.78c0-33.96,0-67.919,0-101.879
		c17.002-5.902,34.044-11.438,51.125-16.55C994.361,255.475,994.361,290.358,994.361,325.24z"/>
	<path d="M1054.859,311.743c-17.067,3.347-34.111,7.093-51.125,11.198c0-35.037,0-70.074,0-105.111
		c17.003-4.928,34.047-9.427,51.125-13.449C1054.859,240.169,1054.859,275.956,1054.859,311.743z"/>
	<path d="M1115.357,301.62c-17.062,2.353-34.108,5.139-51.125,8.327c0-35.908,0-71.815,0-107.723
		c17.007-3.826,34.055-7.173,51.125-10C1115.357,228.689,1115.357,265.154,1115.357,301.62z"/>
	<path d="M1175.855,295.132c-17.054,1.299-34.101,3.052-51.125,5.239c0-36.549,0-73.098,0-109.647
		c17.016-2.626,34.066-4.732,51.125-6.292C1175.855,221.332,1175.855,258.232,1175.855,295.132z"/>
	<path d="M1236.354,292.449c-17.044,0.212-34.093,0.886-51.125,2.016c0-36.945,0-73.89,0-110.835
		c17.028-1.356,34.08-2.166,51.125-2.421C1236.354,218.289,1236.354,255.369,1236.354,292.449z"/>
	<path d="M86.889,653.588c-17.04,0.25-34.086,0.15-51.125-0.297c0-17.08,0-34.16,0-51.24c17.037,0.567,34.086,0.693,51.125,0.377
		C86.889,619.48,86.889,636.534,86.889,653.588z"/>
	<path d="M147.387,651.242c-17.035,1.068-34.081,1.795-51.125,2.173c0-17.069,0-34.138,0-51.207
		c17.046-0.479,34.094-1.399,51.125-2.751C147.387,616.719,147.387,633.98,147.387,651.242z"/>
	<path d="M207.885,646.033c-17.03,1.858-34.075,3.392-51.125,4.587c0-17.317,0-34.634,0-51.951
		c17.055-1.513,34.102-3.456,51.125-5.807C207.885,610.586,207.885,628.309,207.885,646.033z"/>
	<path d="M268.383,638.095c-17.027,2.6-34.071,4.902-51.125,6.882c0-17.817,0-35.635,0-53.452
		c17.062-2.508,34.107-5.423,51.125-8.713C268.383,601.24,268.383,619.668,268.383,638.095z"/>
	<path d="M328.882,627.635c-17.025,3.275-34.068,6.284-51.125,8.999c0-18.557,0-37.115,0-55.672
		c17.066-3.439,34.109-7.25,51.125-11.393C328.882,588.924,328.882,608.279,328.882,627.635z"/>
	<path d="M389.38,614.922c-17.025,3.865-34.067,7.504-51.125,10.883c0-19.518,0-39.035,0-58.553
		c17.068-4.28,34.109-8.888,51.125-13.778C389.38,573.957,389.38,594.44,389.38,614.922z"/>
	<path d="M449.878,600.288c-17.027,4.355-34.067,8.529-51.125,12.484c0-20.674,0-41.347,0-62.021
		c17.067-5.01,34.107-10.295,51.125-15.806C449.878,556.726,449.878,578.507,449.878,600.288z"/>
	<path d="M510.376,584.109c-17.03,4.733-34.069,9.334-51.125,13.763c0-21.995,0-43.99,0-65.985
		c17.063-5.609,34.102-11.435,51.125-17.424C510.376,537.678,510.376,560.894,510.376,584.109z"/>
	<path d="M570.874,566.807c-17.034,4.988-34.073,9.897-51.125,14.684c0-23.448,0-46.896,0-70.344
		c17.058-6.062,34.095-12.277,51.125-18.591C570.874,517.307,570.874,542.057,570.874,566.807z"/>
	<path d="M631.372,548.83c-17.039,5.115-34.077,10.205-51.125,15.225c0-24.995,0-49.989,0-74.983
		c17.051-6.357,34.088-12.801,51.125-19.276C631.372,496.14,631.372,522.485,631.372,548.83z"/>
	<path d="M691.87,530.642c-17.044,5.109-34.082,10.248-51.125,15.372c0-26.595,0-53.189,0-79.784
		c17.043-6.487,34.08-12.993,51.125-19.462C691.87,474.726,691.87,502.684,691.87,530.642z"/>
	<path d="M752.368,512.715c-17.049,4.971-34.088,10.026-51.125,15.12c0-28.207,0-56.414,0-84.62
		c17.035-6.449,34.072-12.848,51.125-19.143C752.368,453.62,752.368,483.168,752.368,512.715z"/>
	<path d="M812.867,495.515c-17.053,4.704-34.092,9.544-51.125,14.477c0-29.789,0-59.579,0-89.368
		c17.028-6.244,34.066-12.371,51.125-18.328C812.867,433.368,812.867,464.441,812.867,495.515z"/>
	<path d="M873.365,479.486c-17.056,4.314-34.096,8.814-51.125,13.458c0-31.301,0-62.603,0-93.904
		c17.022-5.878,34.061-11.574,51.125-17.039C873.365,414.496,873.365,446.991,873.365,479.486z"/>
	<path d="M933.863,465.044c-17.058,3.812-34.099,7.855-51.125,12.091c0-32.704,0-65.407,0-98.111
		c17.018-5.36,34.058-10.478,51.125-15.308C933.863,397.492,933.863,431.268,933.863,465.044z"/>
	<path d="M994.361,452.563c-17.058,3.211-34.1,6.693-51.125,10.41c0-33.96,0-67.919,0-101.879
		c17.016-4.704,34.058-9.112,51.125-13.18C994.361,382.797,994.361,417.68,994.361,452.563z"/>
	<path d="M1054.859,442.366c-17.057,2.527-34.1,5.356-51.125,8.46c0-35.037,0-70.074,0-105.111
		c17.016-3.927,34.06-7.51,51.125-10.711C1054.859,370.792,1054.859,406.579,1054.859,442.366z"/>
	<path d="M1115.357,434.719c-17.053,1.777-34.097,3.881-51.125,6.29c0-35.908,0-71.815,0-107.723
		c17.02-3.049,34.065-5.714,51.125-7.964C1115.357,361.788,1115.357,398.253,1115.357,434.719z"/>
	<path d="M1175.855,429.818c-17.049,0.981-34.094,2.305-51.125,3.958c0-36.549,0-73.098,0-109.647
		c17.025-2.092,34.073-3.769,51.125-5.011C1175.855,356.017,1175.855,392.918,1175.855,429.818z"/>
	<path d="M1236.354,427.791c-17.043,0.16-34.089,0.669-51.125,1.523c0-36.945,0-73.89,0-110.835
		c17.033-1.08,34.081-1.725,51.125-1.928C1236.354,353.631,1236.354,390.711,1236.354,427.791z"/>
	<path d="M86.889,715.833c-17.041,0.169-34.085,0.102-51.125-0.201c0-17.08,0-34.16,0-51.24c17.039,0.422,34.085,0.515,51.125,0.28
		C86.889,681.726,86.889,698.78,86.889,715.833z"/>
	<path d="M147.387,714.247c-17.039,0.722-34.082,1.214-51.125,1.469c0-17.069,0-34.138,0-51.207
		c17.044-0.356,34.089-1.041,51.125-2.048C147.387,679.724,147.387,696.985,147.387,714.247z"/>
	<path d="M207.885,710.724c-17.036,1.257-34.08,2.294-51.125,3.102c0-17.317,0-34.634,0-51.951
		c17.049-1.125,34.094-2.571,51.125-4.322C207.885,675.277,207.885,693.001,207.885,710.724z"/>
	<path d="M268.383,705.356c-17.035,1.759-34.078,3.316-51.125,4.654c0-17.817,0-35.635,0-53.452
		c17.053-1.866,34.097-4.035,51.125-6.485C268.383,668.501,268.383,686.929,268.383,705.356z"/>
	<path d="M328.882,698.282c-17.034,2.216-34.076,4.251-51.125,6.086c0-18.557,0-37.115,0-55.672
		c17.055-2.558,34.098-5.394,51.125-8.48C328.882,659.571,328.882,678.927,328.882,698.282z"/>
	<path d="M389.38,689.685c-17.034,2.615-34.076,5.076-51.125,7.36c0-19.518,0-39.035,0-58.553
		c17.057-3.184,34.098-6.613,51.125-10.255C389.38,648.719,389.38,669.202,389.38,689.685z"/>
	<path d="M449.878,679.788c-17.035,2.946-34.076,5.769-51.125,8.443c0-20.674,0-41.347,0-62.021
		c17.056-3.727,34.097-7.661,51.125-11.765C449.878,636.226,449.878,658.007,449.878,679.788z"/>
	<path d="M510.376,668.847c-17.036,3.202-34.077,6.314-51.125,9.307c0-21.995,0-43.99,0-65.985
		c17.054-4.173,34.094-8.509,51.125-12.969C510.376,622.416,510.376,645.631,510.376,668.847z"/>
	<path d="M570.874,657.146c-17.038,3.374-34.078,6.694-51.125,9.93c0-23.448,0-46.896,0-70.344
		c17.051-4.51,34.09-9.137,51.125-13.838C570.874,607.645,570.874,632.396,570.874,657.146z"/>
	<path d="M631.372,644.988c-17.04,3.459-34.081,6.902-51.125,10.296c0-24.994,0-49.989,0-74.983
		c17.047-4.731,34.086-9.527,51.125-14.347C631.372,592.298,631.372,618.643,631.372,644.988z"/>
	<path d="M691.87,632.688c-17.043,3.455-34.083,6.931-51.125,10.396c0-26.595,0-53.189,0-79.784
		c17.043-4.828,34.081-9.671,51.125-14.486C691.87,576.772,691.87,604.73,691.87,632.688z"/>
	<path d="M752.368,620.565c-17.045,3.361-34.085,6.78-51.125,10.225c0-28.207,0-56.414,0-84.62
		c17.038-4.801,34.077-9.564,51.125-14.248C752.368,561.469,752.368,591.017,752.368,620.565z"/>
	<path d="M812.867,608.933c-17.047,3.18-34.088,6.453-51.125,9.79c0-29.789,0-59.579,0-89.368
		c17.034-4.649,34.073-9.21,51.125-13.642C812.867,546.786,812.867,577.859,812.867,608.933z"/>
	<path d="M873.365,598.093c-17.049,2.916-34.09,5.959-51.125,9.101c0-31.301,0-62.603,0-93.904
		c17.03-4.377,34.07-8.617,51.125-12.682C873.365,533.103,873.365,565.598,873.365,598.093z"/>
	<path d="M933.863,588.326c-17.049,2.577-34.091,5.311-51.125,8.177c0-32.704,0-65.407,0-98.111
		c17.028-3.992,34.069-7.802,51.125-11.394C933.863,520.774,933.863,554.55,933.863,588.326z"/>
	<path d="M994.361,579.885c-17.049,2.171-34.091,4.525-51.125,7.04c0-33.96,0-67.919,0-101.879
		c17.027-3.504,34.069-6.784,51.125-9.81C994.361,510.12,994.361,545.003,994.361,579.885z"/>
	<path d="M1054.859,572.99c-17.049,1.708-34.091,3.621-51.125,5.721c0-35.037,0-70.074,0-105.111
		c17.027-2.925,34.07-5.591,51.125-7.972C1054.859,501.415,1054.859,537.203,1054.859,572.99z"/>
	<path d="M1115.357,567.818c-17.047,1.201-34.09,2.624-51.125,4.254c0-35.908,0-71.815,0-107.723
		c17.029-2.271,34.073-4.254,51.125-5.928C1115.357,494.887,1115.357,531.352,1115.357,567.818z"/>
	<path d="M1175.855,564.503c-17.045,0.663-34.088,1.558-51.125,2.677c0-36.549,0-73.098,0-109.647
		c17.033-1.558,34.077-2.805,51.125-3.73C1175.855,490.703,1175.855,527.603,1175.855,564.503z"/>
	<path d="M1236.354,563.133c-17.042,0.108-34.086,0.452-51.125,1.03c0-36.945,0-73.89,0-110.835
		c17.037-0.804,34.082-1.284,51.125-1.435C1236.354,488.973,1236.354,526.053,1236.354,563.133z"/>
	<path d="M86.889,778.079c-17.042,0.088-34.084,0.053-51.125-0.105c0-17.08,0-34.16,0-51.24c17.041,0.277,34.084,0.338,51.125,0.184
		C86.889,743.972,86.889,761.025,86.889,778.079z"/>
	<path d="M147.387,777.252c-17.041,0.377-34.083,0.633-51.125,0.766c0-17.069,0-34.138,0-51.207
		c17.043-0.234,34.086-0.683,51.125-1.344C147.387,742.729,147.387,759.991,147.387,777.252z"/>
	<path d="M207.885,775.416c-17.04,0.655-34.082,1.196-51.125,1.617c0-17.317,0-34.634,0-51.951
		c17.045-0.739,34.088-1.688,51.125-2.838C207.885,739.968,207.885,757.692,207.885,775.416z"/>
	<path d="M268.383,772.617c-17.04,0.917-34.082,1.729-51.125,2.426c0-17.817,0-35.635,0-53.452
		c17.047-1.224,34.089-2.648,51.125-4.257C268.383,735.762,268.383,754.19,268.383,772.617z"/>
	<path d="M328.882,768.929c-17.04,1.155-34.082,2.216-51.125,3.173c0-18.557,0-37.115,0-55.672
		c17.048-1.679,34.09-3.54,51.125-5.567C328.882,730.219,328.882,749.574,328.882,768.929z"/>
	<path d="M389.38,764.448c-17.04,1.364-34.081,2.646-51.125,3.837c0-19.518,0-39.035,0-58.553c17.048-2.089,34.09-4.34,51.125-6.732
		C389.38,723.482,389.38,743.965,389.38,764.448z"/>
	<path d="M449.878,759.288c-17.04,1.536-34.081,3.008-51.125,4.401c0-20.674,0-41.347,0-62.021
		c17.048-2.445,34.089-5.028,51.125-7.723C449.878,715.726,449.878,737.507,449.878,759.288z"/>
	<path d="M510.376,753.585c-17.04,1.669-34.082,3.292-51.125,4.852c0-21.995,0-43.99,0-65.985
		c17.047-2.738,34.088-5.585,51.125-8.514C510.376,707.153,510.376,730.369,510.376,753.585z"/>
	<path d="M570.874,747.485c-17.041,1.759-34.082,3.49-51.125,5.177c0-23.448,0-46.896,0-70.344
		c17.046-2.96,34.087-5.997,51.125-9.084C570.874,697.984,570.874,722.734,570.874,747.485z"/>
	<path d="M631.372,741.147c-17.041,1.804-34.083,3.598-51.125,5.368c0-24.994,0-49.989,0-74.983
		c17.044-3.105,34.085-6.254,51.125-9.419C631.372,688.457,631.372,714.802,631.372,741.147z"/>
	<path d="M691.87,734.735c-17.042,1.801-34.083,3.613-51.125,5.419c0-26.595,0-53.189,0-79.784
		c17.042-3.17,34.083-6.349,51.125-9.509C691.87,678.819,691.87,706.777,691.87,734.735z"/>
	<path d="M752.368,728.415c-17.043,1.752-34.084,3.534-51.125,5.331c0-28.207,0-56.414,0-84.62
		c17.04-3.152,34.081-6.279,51.125-9.354C752.368,669.319,752.368,698.867,752.368,728.415z"/>
	<path d="M812.867,722.351c-17.043,1.657-34.085,3.364-51.125,5.104c0-29.789,0-59.579,0-89.368
		c17.038-3.053,34.079-6.047,51.125-8.956C812.867,660.204,812.867,691.277,812.867,722.351z"/>
	<path d="M873.365,716.7c-17.044,1.52-34.085,3.106-51.125,4.745c0-31.301,0-62.603,0-93.904
		c17.037-2.874,34.078-5.658,51.125-8.326C873.365,651.71,873.365,684.205,873.365,716.7z"/>
	<path d="M933.863,711.608c-17.044,1.343-34.085,2.768-51.125,4.263c0-32.704,0-65.407,0-98.111
		c17.036-2.622,34.077-5.123,51.125-7.48C933.863,644.056,933.863,677.832,933.863,711.608z"/>
	<path d="M994.361,707.208c-17.044,1.131-34.086,2.358-51.125,3.67c0-33.96,0-67.919,0-101.879
		c17.035-2.301,34.077-4.455,51.125-6.44C994.361,637.442,994.361,672.325,994.361,707.208z"/>
	<path d="M1054.859,703.613c-17.044,0.89-34.086,1.887-51.125,2.982c0-35.037,0-70.074,0-105.111
		c17.035-1.921,34.078-3.671,51.125-5.233C1054.859,632.039,1054.859,667.826,1054.859,703.613z"/>
	<path d="M1115.357,700.917c-17.043,0.626-34.085,1.367-51.125,2.218c0-35.908,0-71.815,0-107.723
		c17.036-1.491,34.079-2.793,51.125-3.891C1115.357,627.986,1115.357,664.451,1115.357,700.917z"/>
	<path d="M1175.855,699.189c-17.043,0.346-34.085,0.812-51.125,1.395c0-36.549,0-73.098,0-109.647
		c17.038-1.023,34.081-1.842,51.125-2.448C1175.855,625.389,1175.855,662.289,1175.855,699.189z"/>
	<path d="M1236.354,698.474c-17.042,0.056-34.084,0.236-51.125,0.537c0-36.945,0-73.89,0-110.835
		c17.04-0.528,34.083-0.843,51.125-0.942C1236.354,624.315,1236.354,661.394,1236.354,698.474z"/>
	<path d="M86.889,840.325c-17.042,0.007-34.083,0.004-51.125-0.009c0-17.08,0-34.16,0-51.24c17.041,0.132,34.084,0.161,51.125,0.088
		C86.889,806.218,86.889,823.271,86.889,840.325z"/>
	<path d="M147.387,840.257c-17.042,0.031-34.083,0.052-51.125,0.063c0-17.069,0-34.138,0-51.207
		c17.042-0.112,34.084-0.326,51.125-0.641C147.387,805.734,147.387,822.996,147.387,840.257z"/>
	<path d="M207.885,840.107c-17.042,0.054-34.083,0.098-51.125,0.132c0-17.317,0-34.634,0-51.951
		c17.042-0.352,34.084-0.804,51.125-1.353C207.885,804.66,207.885,822.383,207.885,840.107z"/>
	<path d="M268.383,839.878c-17.042,0.075-34.083,0.141-51.125,0.198c0-17.817,0-35.635,0-53.452
		c17.043-0.584,34.085-1.262,51.125-2.03C268.383,803.023,268.383,821.451,268.383,839.878z"/>
	<path d="M328.882,839.577c-17.042,0.094-34.083,0.181-51.125,0.259c0-18.557,0-37.115,0-55.672
		c17.043-0.8,34.085-1.687,51.125-2.654C328.882,800.866,328.882,820.221,328.882,839.577z"/>
	<path d="M389.38,839.21c-17.042,0.112-34.083,0.216-51.125,0.314c0-19.518,0-39.035,0-58.553
		c17.043-0.996,34.085-2.069,51.125-3.209C389.38,798.245,389.38,818.727,389.38,839.21z"/>
	<path d="M449.878,838.788c-17.042,0.126-34.083,0.246-51.125,0.36c0-20.674,0-41.347,0-62.021
		c17.043-1.165,34.085-2.396,51.125-3.682C449.878,795.227,449.878,817.008,449.878,838.788z"/>
	<path d="M510.376,838.322c-17.042,0.136-34.083,0.269-51.125,0.397c0-21.995,0-43.99,0-65.985
		c17.043-1.305,34.085-2.662,51.125-4.059C510.376,791.891,510.376,815.106,510.376,838.322z"/>
	<path d="M570.874,837.823c-17.042,0.144-34.083,0.285-51.125,0.423c0-23.448,0-46.896,0-70.344
		c17.043-1.411,34.084-2.859,51.125-4.33C570.874,788.323,570.874,813.073,570.874,837.823z"/>
	<path d="M631.372,837.305c-17.042,0.147-34.083,0.294-51.125,0.439c0-24.995,0-49.989,0-74.983
		c17.042-1.48,34.084-2.981,51.125-4.49C631.372,784.616,631.372,810.96,631.372,837.305z"/>
	<path d="M691.87,836.781c-17.042,0.147-34.083,0.295-51.125,0.443c0-26.595,0-53.189,0-79.784
		c17.042-1.511,34.083-3.027,51.125-4.533C691.87,780.865,691.87,808.823,691.87,836.781z"/>
	<path d="M752.368,836.264c-17.042,0.143-34.083,0.289-51.125,0.436c0-28.207,0-56.414,0-84.62
		c17.041-1.503,34.083-2.993,51.125-4.459C752.368,777.169,752.368,806.716,752.368,836.264z"/>
	<path d="M812.867,835.768c-17.042,0.135-34.083,0.275-51.125,0.417c0-29.789,0-59.579,0-89.368
		c17.041-1.455,34.082-2.883,51.125-4.269C812.867,773.622,812.867,804.695,812.867,835.768z"/>
	<path d="M873.365,835.306c-17.042,0.124-34.083,0.254-51.125,0.388c0-31.301,0-62.603,0-93.904
		c17.041-1.371,34.082-2.698,51.125-3.969C873.365,770.316,873.365,802.811,873.365,835.306z"/>
	<path d="M933.863,834.89c-17.042,0.11-34.083,0.226-51.125,0.349c0-32.704,0-65.407,0-98.111c17.04-1.25,34.082-2.442,51.125-3.566
		C933.863,767.338,933.863,801.114,933.863,834.89z"/>
	<path d="M994.361,834.53c-17.042,0.092-34.083,0.193-51.125,0.3c0-33.96,0-67.919,0-101.879c17.04-1.097,34.082-2.124,51.125-3.07
		C994.361,764.765,994.361,799.647,994.361,834.53z"/>
	<path d="M1054.859,834.236c-17.042,0.073-34.083,0.154-51.125,0.244c0-35.037,0-70.074,0-105.111
		c17.04-0.916,34.082-1.75,51.125-2.495C1054.859,762.662,1054.859,798.449,1054.859,834.236z"/>
	<path d="M1115.357,834.016c-17.042,0.051-34.083,0.112-51.125,0.181c0-35.908,0-71.815,0-107.723
		c17.04-0.711,34.082-1.331,51.125-1.855C1115.357,761.085,1115.357,797.55,1115.357,834.016z"/>
	<path d="M1175.855,833.875c-17.042,0.028-34.083,0.066-51.125,0.114c0-36.549,0-73.098,0-109.647
		c17.041-0.488,34.083-0.878,51.125-1.167C1175.855,760.074,1175.855,796.975,1175.855,833.875z"/>
	<path d="M1236.354,833.816c-17.042,0.005-34.083,0.019-51.125,0.044c0-36.945,0-73.89,0-110.835
		c17.041-0.252,34.083-0.402,51.125-0.449C1236.354,759.656,1236.354,796.736,1236.354,833.816z"/>
	<path d="M86.889,902.571c-17.042-0.074-34.084-0.044-51.125,0.088c0-17.08,0-34.16,0-51.24c17.042-0.013,34.083-0.016,51.125-0.009
		C86.889,868.463,86.889,885.517,86.889,902.571z"/>
	<path d="M147.387,903.262c-17.041-0.315-34.083-0.529-51.125-0.641c0-17.069,0-34.138,0-51.207
		c17.042,0.011,34.083,0.032,51.125,0.063C147.387,868.739,147.387,886.001,147.387,903.262z"/>
	<path d="M207.885,904.798c-17.041-0.548-34.083-1.001-51.125-1.353c0-17.317,0-34.634,0-51.951
		c17.042,0.034,34.083,0.079,51.125,0.132C207.885,869.351,207.885,887.075,207.885,904.798z"/>
	<path d="M268.383,907.139c-17.04-0.767-34.082-1.446-51.125-2.03c0-17.817,0-35.635,0-53.452
		c17.042,0.057,34.083,0.123,51.125,0.198C268.383,870.284,268.383,888.712,268.383,907.139z"/>
	<path d="M328.882,910.224c-17.04-0.966-34.082-1.854-51.125-2.654c0-18.557,0-37.115,0-55.672
		c17.042,0.078,34.083,0.165,51.125,0.259C328.882,871.513,328.882,890.869,328.882,910.224z"/>
	<path d="M389.38,913.973c-17.04-1.141-34.082-2.214-51.125-3.209c0-19.518,0-39.035,0-58.553
		c17.042,0.097,34.083,0.202,51.125,0.314C389.38,873.007,389.38,893.49,389.38,913.973z"/>
	<path d="M449.878,918.289c-17.04-1.285-34.082-2.516-51.125-3.682c0-20.674,0-41.347,0-62.021
		c17.042,0.114,34.083,0.234,51.125,0.36C449.878,874.727,449.878,896.508,449.878,918.289z"/>
	<path d="M510.376,923.06c-17.041-1.397-34.082-2.754-51.125-4.059c0-21.995,0-43.99,0-65.985
		c17.042,0.128,34.083,0.26,51.125,0.397C510.376,876.628,510.376,899.844,510.376,923.06z"/>
	<path d="M570.874,928.162c-17.041-1.472-34.082-2.919-51.125-4.33c0-23.448,0-46.896,0-70.344
		c17.042,0.138,34.083,0.279,51.125,0.423C570.874,878.661,570.874,903.412,570.874,928.162z"/>
	<path d="M631.372,933.464c-17.042-1.509-34.083-3.01-51.125-4.49c0-24.994,0-49.989,0-74.983
		c17.042,0.145,34.083,0.291,51.125,0.439C631.372,880.774,631.372,907.119,631.372,933.464z"/>
	<path d="M691.87,938.827c-17.042-1.507-34.083-3.022-51.125-4.533c0-26.595,0-53.189,0-79.784
		c17.042,0.148,34.083,0.296,51.125,0.443C691.87,882.911,691.87,910.869,691.87,938.827z"/>
	<path d="M752.368,944.114c-17.042-1.465-34.084-2.956-51.125-4.459c0-28.207,0-56.414,0-84.62
		c17.042,0.147,34.083,0.293,51.125,0.436C752.368,885.018,752.368,914.566,752.368,944.114z"/>
	<path d="M812.867,949.186c-17.043-1.386-34.084-2.814-51.125-4.269c0-29.789,0-59.579,0-89.368
		c17.042,0.142,34.083,0.282,51.125,0.417C812.867,887.039,812.867,918.113,812.867,949.186z"/>
	<path d="M873.365,953.913c-17.043-1.271-34.085-2.598-51.125-3.969c0-31.301,0-62.603,0-93.904
		c17.042,0.134,34.083,0.264,51.125,0.388C873.365,888.923,873.365,921.418,873.365,953.913z"/>
	<path d="M933.863,958.172c-17.043-1.123-34.085-2.315-51.125-3.566c0-32.704,0-65.407,0-98.111
		c17.042,0.122,34.083,0.239,51.125,0.349C933.863,890.62,933.863,924.396,933.863,958.172z"/>
	<path d="M994.361,961.853c-17.043-0.946-34.085-1.973-51.125-3.07c0-33.96,0-67.919,0-101.879
		c17.042,0.107,34.083,0.208,51.125,0.3C994.361,892.087,994.361,926.97,994.361,961.853z"/>
	<path d="M1054.859,964.86c-17.043-0.745-34.085-1.579-51.125-2.495c0-35.037,0-70.074,0-105.111
		c17.042,0.09,34.083,0.171,51.125,0.244C1054.859,893.285,1054.859,929.073,1054.859,964.86z"/>
	<path d="M1115.357,967.115c-17.043-0.524-34.085-1.144-51.125-1.855c0-35.908,0-71.815,0-107.723
		c17.042,0.07,34.083,0.13,51.125,0.181C1115.357,894.184,1115.357,930.65,1115.357,967.115z"/>
	<path d="M1175.855,968.56c-17.042-0.289-34.084-0.679-51.125-1.167c0-36.549,0-73.098,0-109.647
		c17.042,0.048,34.083,0.086,51.125,0.114C1175.855,894.76,1175.855,931.66,1175.855,968.56z"/>
	<path d="M1236.354,969.158c-17.042-0.047-34.084-0.197-51.125-0.449c0-36.945,0-73.89,0-110.835
		c17.042,0.025,34.083,0.039,51.125,0.044C1236.354,894.998,1236.354,932.078,1236.354,969.158z"/>
	<path d="M86.889,964.816c-17.041-0.154-34.084-0.093-51.125,0.184c0-17.08,0-34.16,0-51.24c17.041-0.158,34.084-0.193,51.125-0.105
		C86.889,930.709,86.889,947.763,86.889,964.816z"/>
	<path d="M147.387,966.267c-17.039-0.661-34.082-1.11-51.125-1.344c0-17.069,0-34.138,0-51.207
		c17.042,0.133,34.084,0.389,51.125,0.766C147.387,931.744,147.387,949.006,147.387,966.267z"/>
	<path d="M207.885,969.49c-17.037-1.15-34.08-2.099-51.125-2.838c0-17.317,0-34.634,0-51.951
		c17.043,0.421,34.085,0.962,51.125,1.617C207.885,934.042,207.885,951.766,207.885,969.49z"/>
	<path d="M268.383,974.4c-17.036-1.609-34.079-3.033-51.125-4.257c0-17.817,0-35.635,0-53.452
		c17.043,0.698,34.085,1.509,51.125,2.426C268.383,937.545,268.383,955.973,268.383,974.4z"/>
	<path d="M328.882,980.871c-17.035-2.027-34.077-3.888-51.125-5.567c0-18.557,0-37.115,0-55.672
		c17.044,0.956,34.086,2.017,51.125,3.173C328.882,942.161,328.882,961.516,328.882,980.871z"/>
	<path d="M389.38,988.736c-17.035-2.392-34.077-4.643-51.125-6.732c0-19.518,0-39.035,0-58.553
		c17.044,1.19,34.086,2.473,51.125,3.837C389.38,947.77,389.38,968.253,389.38,988.736z"/>
	<path d="M449.878,997.789c-17.036-2.695-34.077-5.278-51.125-7.723c0-20.674,0-41.347,0-62.021
		c17.044,1.393,34.085,2.865,51.125,4.401C449.878,954.227,449.878,976.008,449.878,997.789z"/>
	<path d="M510.376,1007.797c-17.037-2.929-34.078-5.776-51.125-8.514c0-21.995,0-43.99,0-65.985
		c17.044,1.56,34.085,3.182,51.125,4.852C510.376,961.366,510.376,984.581,510.376,1007.797z"/>
	<path d="M570.874,1018.501c-17.039-3.087-34.079-6.124-51.125-9.084c0-23.448,0-46.896,0-70.344
		c17.043,1.687,34.084,3.418,51.125,5.177C570.874,969,570.874,993.75,570.874,1018.501z"/>
	<path d="M631.372,1029.622c-17.041-3.165-34.081-6.314-51.125-9.419c0-24.994,0-49.989,0-74.983
		c17.043,1.769,34.084,3.564,51.125,5.368C631.372,976.933,631.372,1003.277,631.372,1029.622z"/>
	<path d="M691.87,1040.874c-17.043-3.16-34.083-6.34-51.125-9.509c0-26.595,0-53.189,0-79.784
		c17.042,1.806,34.083,3.618,51.125,5.419C691.87,984.958,691.87,1012.916,691.87,1040.874z"/>
	<path d="M752.368,1051.963c-17.045-3.074-34.085-6.202-51.125-9.354c0-28.207,0-56.414,0-84.62
		c17.041,1.796,34.083,3.579,51.125,5.331C752.368,992.868,752.368,1022.416,752.368,1051.963z"/>
	<path d="M812.867,1062.604c-17.046-2.909-34.087-5.903-51.125-8.956c0-29.789,0-59.579,0-89.368
		c17.041,1.74,34.082,3.446,51.125,5.104C812.867,1000.457,812.867,1031.531,812.867,1062.604z"/>
	<path d="M873.365,1072.52c-17.048-2.667-34.089-5.451-51.125-8.325c0-31.301,0-62.603,0-93.904
		c17.04,1.638,34.082,3.225,51.125,4.745C873.365,1007.53,873.365,1040.025,873.365,1072.52z"/>
	<path d="M933.863,1081.454c-17.048-2.357-34.09-4.858-51.125-7.48c0-32.703,0-65.407,0-98.111
		c17.04,1.494,34.081,2.92,51.125,4.263C933.863,1013.902,933.863,1047.678,933.863,1081.454z"/>
	<path d="M994.361,1089.175c-17.048-1.985-34.09-4.139-51.125-6.44c0-33.96,0-67.919,0-101.879
		c17.04,1.312,34.081,2.539,51.125,3.67C994.361,1019.41,994.361,1054.292,994.361,1089.175z"/>
	<path d="M1054.859,1095.483c-17.047-1.562-34.09-3.312-51.125-5.233c0-35.037,0-70.074,0-105.111
		c17.04,1.095,34.082,2.092,51.125,2.983C1054.859,1023.909,1054.859,1059.696,1054.859,1095.483z"/>
	<path d="M1115.357,1100.214c-17.046-1.099-34.089-2.4-51.125-3.891c0-35.908,0-71.815,0-107.723
		c17.04,0.85,34.082,1.592,51.125,2.218C1115.357,1027.283,1115.357,1063.749,1115.357,1100.214z"/>
	<path d="M1175.855,1103.246c-17.044-0.607-34.087-1.425-51.125-2.448c0-36.549,0-73.098,0-109.647
		c17.041,0.583,34.083,1.05,51.125,1.395C1175.855,1029.446,1175.855,1066.346,1175.855,1103.246z"/>
	<path d="M1236.354,1104.5c-17.042-0.099-34.086-0.414-51.125-0.942c0-36.945,0-73.89,0-110.835
		c17.041,0.301,34.083,0.48,51.125,0.537C1236.354,1030.34,1236.354,1067.42,1236.354,1104.5z"/>
	<path d="M86.889,1027.062c-17.041-0.235-34.086-0.141-51.125,0.28c0-17.08,0-34.16,0-51.24c17.041-0.303,34.084-0.37,51.125-0.201
		C86.889,992.955,86.889,1010.008,86.889,1027.062z"/>
	<path d="M147.387,1029.272c-17.036-1.006-34.081-1.691-51.125-2.048c0-17.069,0-34.138,0-51.207
		c17.043,0.256,34.087,0.747,51.125,1.469C147.387,994.749,147.387,1012.011,147.387,1029.272z"/>
	<path d="M207.885,1034.181c-17.032-1.751-34.076-3.197-51.125-4.323c0-17.317,0-34.634,0-51.951
		c17.045,0.808,34.089,1.845,51.125,3.102C207.885,998.734,207.885,1016.457,207.885,1034.181z"/>
	<path d="M268.383,1041.661c-17.029-2.45-34.072-4.619-51.125-6.485c0-17.817,0-35.635,0-53.452
		c17.047,1.339,34.09,2.895,51.125,4.654C268.383,1004.806,268.383,1023.234,268.383,1041.661z"/>
	<path d="M328.882,1051.519c-17.027-3.086-34.07-5.922-51.125-8.48c0-18.557,0-37.115,0-55.672
		c17.049,1.835,34.091,3.87,51.125,6.086C328.882,1012.808,328.882,1032.163,328.882,1051.519z"/>
	<path d="M389.38,1063.498c-17.027-3.642-34.069-7.071-51.125-10.255c0-19.518,0-39.035,0-58.553
		c17.049,2.284,34.091,4.745,51.125,7.36C389.38,1022.532,389.38,1043.015,389.38,1063.498z"/>
	<path d="M449.878,1077.289c-17.028-4.104-34.069-8.038-51.125-11.765c0-20.674,0-41.347,0-62.021
		c17.049,2.674,34.091,5.497,51.125,8.443C449.878,1033.728,449.878,1055.508,449.878,1077.289z"/>
	<path d="M510.376,1092.535c-17.031-4.46-34.071-8.796-51.125-12.969c0-21.995,0-43.99,0-65.985
		c17.048,2.994,34.089,6.106,51.125,9.307C510.376,1046.103,510.376,1069.319,510.376,1092.535z"/>
	<path d="M570.874,1108.839c-17.035-4.701-34.074-9.327-51.125-13.838c0-23.448,0-46.896,0-70.344
		c17.047,3.236,34.087,6.556,51.125,9.931C570.874,1059.339,570.874,1084.089,570.874,1108.839z"/>
	<path d="M631.372,1125.781c-17.039-4.82-34.078-9.617-51.125-14.348c0-24.994,0-49.989,0-74.983
		c17.045,3.395,34.085,6.837,51.125,10.297C631.372,1073.091,631.372,1099.436,631.372,1125.781z"/>
	<path d="M691.87,1142.92c-17.044-4.815-34.083-9.657-51.125-14.486c0-26.594,0-53.189,0-79.784
		c17.042,3.465,34.082,6.941,51.125,10.396C691.87,1087.004,691.87,1114.962,691.87,1142.92z"/>
	<path d="M752.368,1159.813c-17.048-4.684-34.087-9.448-51.125-14.248c0-28.207,0-56.414,0-84.62
		c17.04,3.446,34.08,6.864,51.125,10.225C752.368,1100.717,752.368,1130.265,752.368,1159.813z"/>
	<path d="M812.867,1176.022c-17.052-4.432-34.091-8.993-51.125-13.642c0-29.789,0-59.579,0-89.368
		c17.037,3.337,34.078,6.61,51.125,9.79C812.867,1113.875,812.867,1144.949,812.867,1176.022z"/>
	<path d="M873.365,1191.127c-17.055-4.065-34.095-8.305-51.125-12.682c0-31.301,0-62.603,0-93.904
		c17.036,3.142,34.077,6.185,51.125,9.101C873.365,1126.137,873.365,1158.632,873.365,1191.127z"/>
	<path d="M933.863,1204.736c-17.056-3.592-34.097-7.402-51.125-11.394c0-32.704,0-65.407,0-98.111
		c17.034,2.866,34.076,5.6,51.125,8.177C933.863,1137.184,933.863,1170.96,933.863,1204.736z"/>
	<path d="M994.361,1216.498c-17.056-3.026-34.098-6.306-51.125-9.81c0-33.96,0-67.919,0-101.879
		c17.034,2.515,34.076,4.87,51.125,7.04C994.361,1146.732,994.361,1181.615,994.361,1216.498z"/>
	<path d="M1054.859,1226.106c-17.055-2.381-34.098-5.047-51.125-7.972c0-35.037,0-70.074,0-105.111
		c17.034,2.1,34.077,4.013,51.125,5.721C1054.859,1154.532,1054.859,1190.319,1054.859,1226.106z"/>
	<path d="M1115.357,1233.313c-17.052-1.674-34.096-3.657-51.125-5.928c0-35.908,0-71.815,0-107.723
		c17.035,1.63,34.078,3.053,51.125,4.254C1115.357,1160.382,1115.357,1196.848,1115.357,1233.313z"/>
	<path d="M1175.855,1237.932c-17.048-0.924-34.093-2.172-51.125-3.73c0-36.549,0-73.098,0-109.647
		c17.037,1.118,34.08,2.013,51.125,2.677C1175.855,1164.131,1175.855,1201.031,1175.855,1237.932z"/>
	<path d="M1236.354,1239.842c-17.043-0.151-34.088-0.631-51.125-1.435c0-36.945,0-73.89,0-110.835
		c17.039,0.577,34.083,0.922,51.125,1.03C1236.354,1165.682,1236.354,1202.762,1236.354,1239.842z"/>
	<path d="M86.889,1089.308c-17.04-0.316-34.088-0.19-51.125,0.376c0-17.08,0-34.16,0-51.24c17.039-0.448,34.085-0.547,51.125-0.297
		C86.889,1055.201,86.889,1072.254,86.889,1089.308z"/>
	<path d="M147.387,1092.277c-17.031-1.352-34.079-2.272-51.125-2.751c0-17.069,0-34.138,0-51.207
		c17.045,0.378,34.09,1.105,51.125,2.173C147.387,1057.754,147.387,1075.016,147.387,1092.277z"/>
	<path d="M207.885,1098.872c-17.024-2.352-34.07-4.295-51.125-5.807c0-17.317,0-34.634,0-51.95
		c17.05,1.194,34.095,2.729,51.125,4.587C207.885,1063.425,207.885,1081.149,207.885,1098.872z"/>
	<path d="M268.383,1108.922c-17.018-3.29-34.064-6.205-51.125-8.713c0-17.817,0-35.635,0-53.452
		c17.054,1.98,34.098,4.282,51.125,6.882C268.383,1072.067,268.383,1090.495,268.383,1108.922z"/>
	<path d="M328.882,1122.166c-17.016-4.143-34.059-7.954-51.125-11.393c0-18.557,0-37.115,0-55.672
		c17.057,2.715,34.1,5.724,51.125,8.999C328.882,1083.455,328.882,1102.811,328.882,1122.166z"/>
	<path d="M389.38,1138.261c-17.016-4.89-34.057-9.498-51.125-13.778c0-19.518,0-39.035,0-58.553
		c17.058,3.379,34.1,7.018,51.125,10.883C389.38,1097.295,389.38,1117.778,389.38,1138.261z"/>
	<path d="M449.878,1156.79c-17.019-5.511-34.058-10.796-51.125-15.806c0-20.674,0-41.347,0-62.021
		c17.058,3.955,34.098,8.13,51.125,12.484C449.878,1113.228,449.878,1135.009,449.878,1156.79z"/>
	<path d="M510.376,1177.272c-17.023-5.99-34.062-11.815-51.125-17.424c0-21.995,0-43.99,0-65.985
		c17.056,4.429,34.095,9.03,51.125,13.762C510.376,1130.841,510.376,1154.057,510.376,1177.272z"/>
	<path d="M570.874,1199.178c-17.03-6.314-34.067-12.529-51.125-18.591c0-23.448,0-46.896,0-70.344
		c17.052,4.787,34.091,9.696,51.125,14.684C570.874,1149.677,570.874,1174.428,570.874,1199.178z"/>
	<path d="M631.372,1221.939c-17.038-6.475-34.074-12.919-51.125-19.276c0-24.995,0-49.989,0-74.983
		c17.048,5.02,34.086,10.11,51.125,15.225C631.372,1169.25,631.372,1195.595,631.372,1221.939z"/>
	<path d="M691.87,1244.966c-17.045-6.469-34.082-12.974-51.125-19.462c0-26.595,0-53.189,0-79.784
		c17.043,5.124,34.081,10.262,51.125,15.372C691.87,1189.051,691.87,1217.009,691.87,1244.966z"/>
	<path d="M752.368,1267.663c-17.053-6.295-34.09-12.694-51.125-19.143c0-28.207,0-56.414,0-84.62
		c17.038,5.094,34.076,10.149,51.125,15.12C752.368,1208.567,752.368,1238.115,752.368,1267.663z"/>
	<path d="M812.867,1289.44c-17.06-5.958-34.097-12.085-51.125-18.328c0-29.789,0-59.579,0-89.368
		c17.033,4.933,34.072,9.773,51.125,14.477C812.867,1227.293,812.867,1258.366,812.867,1289.44z"/>
	<path d="M873.365,1309.734c-17.064-5.465-34.103-11.161-51.125-17.039c0-31.301,0-62.603,0-93.904
		c17.029,4.644,34.069,9.144,51.125,13.458C873.365,1244.744,873.365,1277.239,873.365,1309.734z"/>
	<path d="M933.863,1328.018c-17.067-4.829-34.107-9.948-51.125-15.308c0-32.704,0-65.407,0-98.111
		c17.026,4.235,34.067,8.278,51.125,12.091C933.863,1260.467,933.863,1294.243,933.863,1328.018z"/>
	<path d="M994.361,1343.82c-17.068-4.068-34.11-8.476-51.125-13.18c0-33.96,0-67.919,0-101.879
		c17.025,3.718,34.067,7.199,51.125,10.41C994.361,1274.055,994.361,1308.937,994.361,1343.82z"/>
	<path d="M1054.859,1356.73c-17.065-3.201-34.109-6.783-51.125-10.711c0-35.037,0-70.074,0-105.111
		c17.026,3.104,34.069,5.933,51.125,8.46C1054.859,1285.155,1054.859,1320.943,1054.859,1356.73z"/>
	<path d="M1115.357,1366.412c-17.06-2.25-34.106-4.915-51.125-7.964c0-35.908,0-71.815,0-107.723
		c17.028,2.41,34.072,4.514,51.125,6.29C1115.357,1293.481,1115.357,1329.947,1115.357,1366.412z"/>
	<path d="M1175.855,1372.617c-17.053-1.242-34.1-2.919-51.125-5.011c0-36.549,0-73.098,0-109.647
		c17.031,1.653,34.077,2.977,51.125,3.958C1175.855,1298.817,1175.855,1335.717,1175.855,1372.617z"/>
	<path d="M1236.354,1375.184c-17.044-0.202-34.092-0.848-51.125-1.928c0-36.945,0-73.89,0-110.835
		c17.036,0.853,34.082,1.363,51.125,1.523C1236.354,1301.024,1236.354,1338.104,1236.354,1375.184z"/>
	<path d="M86.889,1151.554c-17.038-0.397-34.09-0.238-51.125,0.473c0-17.08,0-34.16,0-51.24c17.037-0.592,34.086-0.724,51.125-0.394
		C86.889,1117.446,86.889,1134.5,86.889,1151.554z"/>
	<path d="M147.387,1155.282c-17.025-1.697-34.076-2.853-51.125-3.454c0-17.069,0-34.138,0-51.207
		c17.047,0.501,34.095,1.463,51.125,2.876C147.387,1120.759,147.387,1138.021,147.387,1155.282z"/>
	<path d="M207.885,1163.564c-17.013-2.951-34.063-5.392-51.125-7.292c0-17.317,0-34.634,0-51.95
		c17.056,1.582,34.103,3.613,51.125,6.072C207.885,1128.117,207.885,1145.84,207.885,1163.564z"/>
	<path d="M268.383,1176.183c-17.006-4.128-34.052-7.79-51.125-10.941c0-17.817,0-35.635,0-53.452
		c17.063,2.623,34.109,5.67,51.125,9.11C268.383,1139.328,268.383,1157.755,268.383,1176.183z"/>
	<path d="M328.882,1192.813c-17.002-5.199-34.046-9.985-51.125-14.307c0-18.557,0-37.115,0-55.672
		c17.068,3.596,34.112,7.581,51.125,11.912C328.882,1154.102,328.882,1173.458,328.882,1192.813z"/>
	<path d="M389.38,1213.023c-17.003-6.136-34.044-11.922-51.125-17.301c0-19.518,0-39.036,0-58.553
		c17.07,4.476,34.111,9.294,51.125,14.406C389.38,1172.058,389.38,1192.541,389.38,1213.023z"/>
	<path d="M449.878,1236.29c-17.007-6.915-34.046-13.552-51.125-19.848c0-20.674,0-41.347,0-62.021
		c17.069,5.239,34.108,10.765,51.125,16.526C449.878,1192.728,449.878,1214.509,449.878,1236.29z"/>
	<path d="M510.376,1262.01c-17.015-7.517-34.051-14.831-51.125-21.88c0-21.995,0-43.99,0-65.985
		c17.065,5.865,34.103,11.956,51.125,18.218C510.376,1215.578,510.376,1238.794,510.376,1262.01z"/>
	<path d="M570.874,1289.517c-17.024-7.926-34.06-15.729-51.125-23.345c0-23.448,0-46.896,0-70.344
		c17.059,6.339,34.096,12.837,51.125,19.438C570.874,1240.016,570.874,1264.766,570.874,1289.517z"/>
	<path d="M631.372,1318.098c-17.036-8.13-34.07-16.22-51.125-24.205c0-24.995,0-49.989,0-74.983
		c17.052,6.647,34.088,13.384,51.125,20.154C631.372,1265.408,631.372,1291.753,631.372,1318.098z"/>
	<path d="M691.87,1347.013c-17.047-8.124-34.081-16.292-51.125-24.438c0-26.595,0-53.189,0-79.784
		c17.043,6.783,34.08,13.584,51.125,20.348C691.87,1291.097,691.87,1319.055,691.87,1347.013z"/>
	<path d="M752.368,1375.512c-17.058-7.907-34.093-15.941-51.125-24.038c0-28.207,0-56.414,0-84.62
		c17.035,6.742,34.071,13.433,51.125,20.015C752.368,1316.417,752.368,1345.964,752.368,1375.512z"/>
	<path d="M812.867,1402.858c-17.068-7.485-34.104-15.178-51.125-23.015c0-29.789,0-59.579,0-89.368
		c17.027,6.528,34.064,12.934,51.125,19.163C812.867,1340.711,812.867,1371.784,812.867,1402.858z"/>
	<path d="M873.365,1428.34c-17.076-6.866-34.113-14.019-51.125-21.396c0-31.301,0-62.603,0-93.904
		c17.02,6.145,34.059,12.101,51.125,17.815C873.365,1363.35,873.365,1395.845,873.365,1428.34z"/>
	<path d="M933.863,1451.301c-17.08-6.069-34.12-12.496-51.125-19.222c0-32.703,0-65.407,0-98.111
		c17.016,5.603,34.056,10.955,51.125,16.005C933.863,1383.749,933.863,1417.525,933.863,1451.301z"/>
	<path d="M994.361,1471.143c-17.081-5.112-34.123-10.648-51.125-16.55c0-33.96,0-67.919,0-101.879
		c17.013,4.918,34.055,9.526,51.125,13.78C994.361,1401.377,994.361,1436.26,994.361,1471.143z"/>
	<path d="M1054.859,1487.353c-17.078-4.022-34.123-8.522-51.125-13.449c0-35.037,0-70.074,0-105.111
		c17.014,4.106,34.058,7.852,51.125,11.198C1054.859,1415.779,1054.859,1451.566,1054.859,1487.353z"/>
	<path d="M1115.357,1499.511c-17.07-2.827-34.118-6.174-51.125-10c0-35.908,0-71.815,0-107.723
		c17.017,3.188,34.063,5.974,51.125,8.327C1115.357,1426.58,1115.357,1463.046,1115.357,1499.511z"/>
	<path d="M1175.855,1507.303c-17.059-1.56-34.109-3.666-51.125-6.292c0-36.549,0-73.098,0-109.647
		c17.024,2.187,34.071,3.94,51.125,5.239C1175.855,1433.503,1175.855,1470.403,1175.855,1507.303z"/>
	<path d="M1236.354,1510.525c-17.046-0.254-34.097-1.065-51.125-2.421c0-36.945,0-73.89,0-110.835
		c17.032,1.129,34.081,1.804,51.125,2.016C1236.354,1436.365,1236.354,1473.445,1236.354,1510.525z"/>
	<path d="M86.889,1213.799c-17.037-0.477-34.093-0.287-51.125,0.569c0-17.08,0-34.16,0-51.24c17.035-0.737,34.087-0.901,51.125-0.49
		C86.889,1179.692,86.889,1196.746,86.889,1213.799z"/>
	<path d="M147.387,1218.287c-17.017-2.041-34.073-3.434-51.125-4.158c0-17.069,0-34.138,0-51.207
		c17.05,0.623,34.102,1.822,51.125,3.58C147.387,1183.764,147.387,1201.026,147.387,1218.287z"/>
	<path d="M207.885,1228.255c-17.001-3.55-34.054-6.489-51.125-8.777c0-17.317,0-34.634,0-51.951
		c17.064,1.969,34.114,4.499,51.125,7.557C207.885,1192.808,207.885,1210.531,207.885,1228.255z"/>
	<path d="M268.383,1243.444c-16.991-4.965-34.039-9.373-51.125-13.169c0-17.817,0-35.635,0-53.452
		c17.075,3.266,34.122,7.061,51.125,11.338C268.383,1206.589,268.383,1225.016,268.383,1243.444z"/>
	<path d="M328.882,1263.461c-16.986-6.252-34.031-12.013-51.125-17.22c0-18.557,0-37.115,0-55.672
		c17.082,4.479,34.126,9.439,51.125,14.825C328.882,1224.75,328.882,1244.105,328.882,1263.461z"/>
	<path d="M389.38,1287.786c-16.988-7.379-34.028-14.344-51.125-20.824c0-19.518,0-39.035,0-58.553
		c17.084,5.575,34.125,11.571,51.125,17.929C389.38,1246.82,389.38,1267.303,389.38,1287.786z"/>
	<path d="M449.878,1315.79c-16.995-8.317-34.032-16.305-51.125-23.889c0-20.674,0-41.347,0-62.021
		c17.082,6.525,34.12,13.402,51.125,20.567C449.878,1272.228,449.878,1294.009,449.878,1315.79z"/>
	<path d="M510.376,1346.747c-17.005-9.043-34.04-17.846-51.125-26.335c0-21.995,0-43.99,0-65.985
		c17.076,7.305,34.112,14.884,51.125,22.673C510.376,1300.316,510.376,1323.532,510.376,1346.747z"/>
	<path d="M570.874,1379.855c-17.018-9.536-34.051-18.927-51.125-28.098c0-23.448,0-46.896,0-70.344
		c17.067,7.893,34.102,15.979,51.125,24.191C570.874,1330.355,570.874,1355.105,570.874,1379.855z"/>
	<path d="M631.372,1414.256c-17.033-9.784-34.065-19.52-51.125-29.134c0-24.994,0-49.989,0-74.983
		c17.056,8.275,34.09,16.658,51.125,25.083C631.372,1361.567,631.372,1387.912,631.372,1414.256z"/>
	<path d="M691.87,1449.059c-17.049-9.78-34.08-19.609-51.125-29.414c0-26.594,0-53.189,0-79.784
		c17.044,8.442,34.078,16.905,51.125,25.324C691.87,1393.143,691.87,1421.101,691.87,1449.059z"/>
	<path d="M752.368,1483.362c-17.064-9.521-34.096-19.189-51.125-28.933c0-28.207,0-56.414,0-84.62
		c17.032,8.39,34.066,16.715,51.125,24.91C752.368,1424.266,752.368,1453.814,752.368,1483.362z"/>
	<path d="M812.867,1516.276c-17.077-9.014-34.11-18.272-51.125-27.701c0-29.789,0-59.579,0-89.368
		c17.02,8.121,34.056,16.093,51.125,23.849C812.867,1454.129,812.867,1485.202,812.867,1516.276z"/>
	<path d="M873.365,1546.947c-17.088-8.271-34.123-16.879-51.125-25.752c0-31.301,0-62.603,0-93.904
		c17.011,7.643,34.047,15.055,51.125,22.172C873.365,1481.957,873.365,1514.452,873.365,1546.947z"/>
	<path d="M933.863,1574.583c-17.095-7.311-34.133-15.047-51.125-23.136c0-32.703,0-65.407,0-98.111
		c17.003,6.969,34.042,13.629,51.125,19.919C933.863,1507.031,933.863,1540.807,933.863,1574.583z"/>
	<path d="M994.361,1598.465c-17.097-6.159-34.138-12.822-51.125-19.92c0-33.96,0-67.919,0-101.879
		c17,6.115,34.041,11.852,51.125,17.15C994.361,1528.699,994.361,1563.582,994.361,1598.465z"/>
	<path d="M1054.859,1617.976c-17.093-4.845-34.138-10.262-51.125-16.188c0-35.037,0-70.074,0-105.111
		c17,5.105,34.045,9.769,51.125,13.937C1054.859,1546.402,1054.859,1582.189,1054.859,1617.976z"/>
	<path d="M1115.357,1632.611c-17.083-3.406-34.132-7.435-51.125-12.037c0-35.908,0-71.815,0-107.723
		c17.005,3.964,34.053,7.433,51.125,10.363C1115.357,1559.68,1115.357,1596.145,1115.357,1632.611z"/>
	<path d="M1175.855,1641.989c-17.067-1.879-34.12-4.415-51.125-7.573c0-36.549,0-73.098,0-109.647
		c17.014,2.721,34.065,4.903,51.125,6.52C1175.855,1568.188,1175.855,1605.088,1175.855,1641.989z"/>
	<path d="M1236.354,1645.867c-17.047-0.306-34.103-1.282-51.125-2.914c0-36.945,0-73.89,0-110.835
		c17.027,1.405,34.079,2.245,51.125,2.509C1236.354,1571.707,1236.354,1608.787,1236.354,1645.867z"/>
</g>
</svg>
